<?xml version="1.0" encoding="US-ASCII" standalone="yes"?>
<svg xmlns="http://www.w3.org/2000/svg" xmlns:xlink="http://www.w3.org/1999/xlink" version="1.0" viewBox="0 0 560 448" width="100%" height="100%">
 <title>Lettering ISO 3098</title>
 <desc>EN ISO 3098, NF E04-505, JIS Z 8313</desc>
 <!-- public domain 2008-03-23 mg -->
 <!-- this is a simple version without SVG fonts to work around bugs in some viewers -->
 <defs>
  <g id="l.0">
   <path d="m2.5+.5 l3+9 3-9 m-5+2.5 h4"/>
   <path d="m13.5+.5 l3+9 3-9 m-5+2.5 h4"/>
   <path d="m15.5+13.5 l2-1.5"/>
   <path d="m24.5+.5 l3+9 3-9 m-5+2.5 h4"/>
   <path d="m26.5+12 l2+1.5"/>
   <path d="m35.5+.5 l3+9 3-9 m-5+2.5 h4"/>
   <path d="m37+12 l1.5+1.5 1.5-1.5"/>
   <path d="m46.5+.5 l3+9 3-9 m-5+2.5 h4"/>
   <path d="m47.5+13 l0.4+.3 a1,1 0,0,0 1.2+0 l0.8-.6 a1,1 0,0,1 1.2+0 l0.4+.3"/>
   <path d="m57.5+.5 l3+9 3-9 m-5+2.5 h4"/>
   <path d="m59+12.5 v-.5 m3+.5 v-.5"/>
   <path d="m68.5+.5 l3+9 3-9 m-5+2.5 h4"/>
   <path d="m71.5+11 a1.25,1.25 0,0,0 0+2.5 1.25,1.25 0,0,0 0-2.5 z"/>
   <path d="m79.5+.5 l3+9 3-9 m-5+2.5 h4"/>
   <path d="m81+13.5 a1.5,1.5 0,0,1 3+0"/>
   <path d="m90.5+.5 l3+9 3-9 m-5+2.5 h4"/>
   <path d="m91+12.5 h5"/>
   <path d="m101.5+.5 l3+9 3-9 m-5+2.5 h4"/>
   <path d="m107.5+.5 l-.5-2"/>
   <path d="m111.5+.5 l3+9 h5 m-3+0 v-9 h3 m-7+2.5 h4 m0+2.5 h2.5"/>
   <path d="m124+.5 v9 h2.5 a2,2 0,0,0 0-4 2.5,2.5 0,0,0 0-5 h-2.5 z m0+5 h2.5"/>
   <path d="m139.5+.5 h-2 a2,2 0,0,0 -2+2 v5 a2,2 0,0,0 2+2 h2"/>
   <path d="m150.5+.5 h-2 a2,2 0,0,0 -2+2 v5 a2,2 0,0,0 2+2 h2"/>
   <path d="m147.5+12 l2+1.5"/>
   <path d="m161.5+.5 h-2 a2,2 0,0,0 -2+2 v5 a2,2 0,0,0 2+2 h2"/>
   <path d="m158+12 l1.5+1.5 1.5-1.5"/>
   <path d="m172.5+.5 h-2 a2,2 0,0,0 -2+2 v5 a2,2 0,0,0 2+2 h2"/>
   <path d="m169+13.5 l1.5-1.5 1.5+1.5"/>
   <path d="m183.5+.5 h-2 a2,2 0,0,0 -2+2 v5 a2,2 0,0,0 2+2 h2"/>
   <path d="m182+12 a.5,.5 0,0,0 0+1 .5,.5 0,0,0 0-1 z"/>
   <path d="m194.5+.5 h-2 a2,2 0,0,0 -2+2 v5 a2,2 0,0,0 2+2 h2"/>
   <path d="m192.5+.5 l-.5-2"/>
   <path d="m201+.5 v9 h3 a2,2 0,0,0 2-2 v-5 a2,2 0,0,0 -2-2 h-3 z"/>
   <path d="m212+.5 v9 h3 a2,2 0,0,0 2-2 v-5 a2,2 0,0,0 -2-2 h-3 z"/>
   <path d="m213+13.5 l1.5-1.5 1.5+1.5"/>
   <path d="m223+.5 v9 h3 a2,2 0,0,0 2-2 v-5 a2,2 0,0,0 -2-2 h-3 z"/>
   <path d="m221.5+5 h3"/>
   <path d="m238.5+.5 h-4 v9 h4 m-4-4 h3"/>
   <path d="m249.5+.5 h-4 v9 h4 m-4-4 h3"/>
   <path d="m246.5+13.5 l2-1.5"/>
   <path d="m260.5+.5 h-4 v9 h4 m-4-4 h3"/>
   <path d="m257.5+12 l2+1.5"/>
   <path d="m271.5+.5 h-4 v9 h4 m-4-4 h3"/>
   <path d="m268+12 l1.5+1.5 1.5-1.5"/>
   <path d="m282.5+.5 h-4 v9 h4 m-4-4 h3"/>
   <path d="m279+12.5 v-.5 m3+.5 v-.5"/>
   <path d="m293.5+.5 h-4 v9 h4 m-4-4 h3"/>
   <path d="m290+13.5 l1.5-1.5 1.5+1.5"/>
   <path d="m304.5+.5 h-4 v9 h4 m-4-4 h3"/>
   <path d="m300+12.5 h5"/>
   <path d="m315.5+.5 h-4 v9 h4 m-4-4 h3"/>
   <path d="m313.5+12 a.5,.5 0,0,0 0+1 .5,.5 0,0,0 0-1 z"/>
   <path d="m326.5+.5 h-4 v9 h4 m-4-4 h3"/>
   <path d="m324.5+.5 l-.5-2"/>
   <path d="m333.5+.5 v9 h4 m-4-4 h4"/>
   <path d="m347.5+5.5 h1.5 v-5 h-3 a2,2 0,0,0 -2+2 v5 a2,2 0,0,0 2+2 h3"/>
   <path d="m358.5+5.5 h1.5 v-5 h-3 a2,2 0,0,0 -2+2 v5 a2,2 0,0,0 2+2 h3"/>
   <path d="m356+12 l1.5+1.5 1.5-1.5"/>
   <path d="m369.5+5.5 h1.5 v-5 h-3 a2,2 0,0,0 -2+2 v5 a2,2 0,0,0 2+2 h3"/>
   <path d="m367+13.5 a1.5,1.5 0,0,1 3+0"/>
   <path d="m380.5+5.5 h1.5 v-5 h-3 a2,2 0,0,0 -2+2 v5 a2,2 0,0,0 2+2 h3"/>
   <path d="m379.5+12 a.5,.5 0,0,0 0+1 .5,.5 0,0,0 0-1 z"/>
   <path d="m391.5+5.5 h1.5 v-5 h-3 a2,2 0,0,0 -2+2 v5 a2,2 0,0,0 2+2 h3"/>
   <path d="m390.5+.5 l-.5-2"/>
   <path d="m399+.5 v9 m5-9 v9 m-5-4 h5"/>
   <path d="m410+.5 v9 m5-9 v9 m-5-4 h5"/>
   <path d="m411+12 l1.5+1.5 1.5-1.5"/>
   <path d="m421+.5 v11.5 m5-11.5 v11.5 m-5-6.5 h5 m-6.5+4 h8"/>
   <path d="m434.5+.5 v9"/>
   <path d="m445.5+.5 v9"/>
   <path d="m444.5+13.5 l2-1.5"/>
   <path d="m456.5+.5 v9"/>
   <path d="m455.5+12 l2+1.5"/>
   <path d="m467.5+.5 v9"/>
   <path d="m466+12 l1.5+1.5 1.5-1.5"/>
   <path d="m478.5+.5 v9"/>
   <path d="m476.5+13 l0.4+.3 a1,1 0,0,0 1.2+0 l0.8-.6 a1,1 0,0,1 1.2+0 l0.4+.3"/>
   <path d="m489.5+.5 v9"/>
   <path d="m488+12.5 v-.5 m3+.5 v-.5"/>
   <path d="m500.5+.5 v9"/>
   <path d="m499+13.5 l1.5-1.5 1.5+1.5"/>
   <path d="m511.5+.5 v9"/>
   <path d="m509+12.5 h5"/>
   <path d="m522.5+.5 v9"/>
   <path d="m522.5+12 a.5,.5 0,0,0 0+1 .5,.5 0,0,0 0-1 z"/>
  </g>
  <g id="l.1">
   <path d="m5.5+.5 v9"/>
   <path d="m5.5+.5 l-.5-2"/>
   <path d="m15+.5 h1 a2,2 0,0,1 2+2 v7"/>
   <path d="m26+.5 h1 a2,2 0,0,1 2+2 v7"/>
   <path d="m27.5+12 l1.5+1.5 1.5-1.5"/>
   <path d="m36+.5 v9 M41+9.5 l-5-5.5116658863921810067 M41+.5 l-3+5.369800677650963065"/>
   <path d="m47+.5 v9 M52+9.5 l-5-5.5116658863921810067 M52+.5 l-3+5.369800677650963065"/>
   <path d="m49.5+.5 l-.5-2"/>
   <path d="m58.5+9.5 v-9 h4"/>
   <path d="m69.5+9.5 v-9 h4"/>
   <path d="m68.5+12 l2+1.5"/>
   <path d="m80.5+9.5 v-9 h4"/>
   <path d="m79+13.5 l1.5-1.5 1.5+1.5"/>
   <path d="m91.5+9.5 v-9 h4"/>
   <path d="m93.5+.5 l-.5-2"/>
   <path d="m101.5+.5 v9 l3-5 3+5 v-9"/>
   <path d="m113+.5 v9 l5-9 v9"/>
   <path d="m124+.5 v9 l5-9 v9"/>
   <path d="m125.5+12 l2+1.5"/>
   <path d="m135+.5 v9 l5-9 v9"/>
   <path d="m135.5+13 l0.4+.3 a1,1 0,0,0 1.2+0 l0.8-.6 a1,1 0,0,1 1.2+0 l0.4+.3"/>
   <path d="m146+.5 v9 l5-9 v9"/>
   <path d="m147+13.5 l1.5-1.5 1.5+1.5"/>
   <path d="m157+.5 v9 l5-9 v9"/>
   <path d="m159.5+.5 l-.5-2"/>
   <path d="m168+7 a2.5,2.5 0,0,0 5+0 v-4 a2.5,2.5 0,0,0 -5+0 v4 z"/>
   <path d="m179+7 a2.5,2.5 0,0,0 5+0 v-4 a2.5,2.5 0,0,0 -5+0 v4 z"/>
   <path d="m180.5+13.5 l2-1.5"/>
   <path d="m190+7 a2.5,2.5 0,0,0 5+0 v-4 a2.5,2.5 0,0,0 -5+0 v4 z"/>
   <path d="m191.5+12 l2+1.5"/>
   <path d="m201+7 a2.5,2.5 0,0,0 5+0 v-4 a2.5,2.5 0,0,0 -5+0 v4 z"/>
   <path d="m202+12 l1.5+1.5 1.5-1.5"/>
   <path d="m212+7 a2.5,2.5 0,0,0 5+0 v-4 a2.5,2.5 0,0,0 -5+0 v4 z"/>
   <path d="m212.5+13 l0.4+.3 a1,1 0,0,0 1.2+0 l0.8-.6 a1,1 0,0,1 1.2+0 l0.4+.3"/>
   <path d="m223+7 a2.5,2.5 0,0,0 5+0 v-4 a2.5,2.5 0,0,0 -5+0 v4 z"/>
   <path d="m224+12.5 v-.5 m3+.5 v-.5"/>
   <path d="m234+7 a2.5,2.5 0,0,0 5+0 v-4 a2.5,2.5 0,0,0 -5+0 v4 z"/>
   <path d="m234.5+12 l1+1.5 m2-1.5 l1+1.5"/>
   <path d="m245+7 a2.5,2.5 0,0,0 5+0 v-4 a2.5,2.5 0,0,0 -5+0 v4 z"/>
   <path d="m245+12.5 h5"/>
   <path d="m256+7 a2.5,2.5 0,0,0 5+0 v-4 a2.5,2.5 0,0,0 -5+0 v4 z"/>
   <path d="m255+1 l7+8"/>
   <path d="m267+.5 v9 h2.5 a2.5,2.5 0,0,0 0-5 h-2.5"/>
   <path d="m277.5+7 a2.5,2.5 0,0,0 5+0 v-4 a2.5,2.5 0,0,0 -5+0 v4 z m4-4.5 l2-2"/>
   <path d="m289+.5 v9 h2.5 a2.5,2.5 0,0,0 0-5 h-2.5 m5-4 l-2+4"/>
   <path d="m300+.5 v9 h2.5 a2.5,2.5 0,0,0 0-5 h-2.5 m5-4 l-2+4"/>
   <path d="m301.5+12 l2+1.5"/>
   <path d="m311+.5 v9 h2.5 a2.5,2.5 0,0,0 0-5 h-2.5 m5-4 l-2+4"/>
   <path d="m312+13.5 l1.5-1.5 1.5+1.5"/>
   <path d="m322+.5 v9 h2.5 a2.5,2.5 0,0,0 0-5 h-2.5 m5-4 l-2+4"/>
   <path d="m324.5+.5 l-.5-2"/>
   <path d="m7.5+9 a6.5,6.5 0,0,1 -2.5+.5 2,2 0,0,1 -.9085683308339920508-3.7817136661667984101 L6.9085683308339920508+4.2817136661667984101 A2,2 0,0,0 6+.5 a5,5 0,0,0 -3+1" transform="translate(330, 0)"/>
   <path d="m7.5+9 a6.5,6.5 0,0,1 -2.5+.5 2,2 0,0,1 -.9085683308339920508-3.7817136661667984101 L6.9085683308339920508+4.2817136661667984101 A2,2 0,0,0 6+.5 a5,5 0,0,0 -3+1" transform="translate(341, 0)"/>
   <path d="m345.5+12 l2+1.5"/>
   <path d="m7.5+9 a6.5,6.5 0,0,1 -2.5+.5 2,2 0,0,1 -.9085683308339920508-3.7817136661667984101 L6.9085683308339920508+4.2817136661667984101 A2,2 0,0,0 6+.5 a5,5 0,0,0 -3+1" transform="translate(352, 0)"/>
   <path d="m356+12 l1.5+1.5 1.5-1.5"/>
   <path d="m7.5+9 a6.5,6.5 0,0,1 -2.5+.5 2,2 0,0,1 -.9085683308339920508-3.7817136661667984101 L6.9085683308339920508+4.2817136661667984101 A2,2 0,0,0 6+.5 a5,5 0,0,0 -3+1" transform="translate(363, 0)"/>
   <path d="m367+13.5 l1.5-1.5 1.5+1.5"/>
   <path d="m7.5+9 a6.5,6.5 0,0,1 -2.5+.5 2,2 0,0,1 -.9085683308339920508-3.7817136661667984101 L6.9085683308339920508+4.2817136661667984101 A2,2 0,0,0 6+.5 a5,5 0,0,0 -3+1" transform="translate(374, 0)"/>
   <path d="m379.5+.5 l-.5-2"/>
   <path d="m388+9.5 h5 m-2.5+0 v-9"/>
   <path d="m399+9.5 h5 m-2.5+0 v-9"/>
   <path d="m400+13.5 l1.5-1.5 1.5+1.5"/>
   <path d="m410+9.5 h5 m-2.5+0 v-9"/>
   <path d="m412.5+.5 l-.5-2"/>
   <path d="m421+9.5 h5 m-2.5+0 v-9"/>
   <path d="m421.5+3.5 l4+3"/>
   <path d="m432+9.5 v-6.5 a2.5,2.5 0,0,1 5+0 v6.5"/>
   <path d="m443+9.5 v-6.5 a2.5,2.5 0,0,1 5+0 v6.5"/>
   <path d="m444.5+13.5 l2-1.5"/>
   <path d="m454+9.5 v-6.5 a2.5,2.5 0,0,1 5+0 v6.5"/>
   <path d="m455.5+12 l2+1.5"/>
   <path d="m465+9.5 v-6.5 a2.5,2.5 0,0,1 5+0 v6.5"/>
   <path d="m466+12 l1.5+1.5 1.5-1.5"/>
   <path d="m476+9.5 v-6.5 a2.5,2.5 0,0,1 5+0 v6.5"/>
   <path d="m476.5+13 l0.4+.3 a1,1 0,0,0 1.2+0 l0.8-.6 a1,1 0,0,1 1.2+0 l0.4+.3"/>
   <path d="m487+9.5 v-6.5 a2.5,2.5 0,0,1 5+0 v6.5"/>
   <path d="m488+12.5 v-.5 m3+.5 v-.5"/>
   <path d="m498+9.5 v-6.5 a2.5,2.5 0,0,1 5+0 v6.5"/>
   <path d="m500.5+11 a1.25,1.25 0,0,0 0+2.5 1.25,1.25 0,0,0 0-2.5 z"/>
   <path d="m509+9.5 v-6.5 a2.5,2.5 0,0,1 5+0 v6.5"/>
   <path d="m509.5+12 l1+1.5 m2-1.5 l1+1.5"/>
   <path d="m520+9.5 v-6.5 a2.5,2.5 0,0,1 5+0 v6.5"/>
   <path d="m521+13.5 a1.5,1.5 0,0,1 3+0"/>
  </g>
  <g id="l.2">
   <path d="m3+9.5 v-6.5 a2.5,2.5 0,0,1 5+0 v6.5"/>
   <path d="m3+12.5 h5"/>
   <path d="m14+9.5 v-6.5 a2.5,2.5 0,0,1 5+0 v6.5"/>
   <path d="m16.5+12 a.5,.5 0,0,0 0+1 .5,.5 0,0,0 0-1 z"/>
   <path d="m25+9.5 v-6.5 a2.5,2.5 0,0,1 5+0 v6.5"/>
   <path d="m27.5+.5 l-.5-2"/>
   <path d="m35.5+9.5 l3-9 3+9"/>
   <path d="m45.5+9.5 l2-9 2+6 2-6 2+9"/>
   <path d="m57.5+.5 l6+9 m-6+0 l6-9"/>
   <path d="m68.5+9.5 L71.5+5.1558688457449497979 74.5+9.5 m-3-9 v5"/>
   <path d="m79.5+9.5 L82.5+5.1558688457449497979 85.5+9.5 m-3-9 v5"/>
   <path d="m81.5+12 l2+1.5"/>
   <path d="m91+9.5 h5 l-5-9 h5"/>
   <path d="m102+9.5 h5 l-5-9 h5"/>
   <path d="m103.5+12 l2+1.5"/>
   <path d="m113+9.5 h5 l-5-9 h5"/>
   <path d="m114+13.5 l1.5-1.5 1.5+1.5"/>
   <path d="m124+9.5 h5 l-5-9 h5"/>
   <path d="m126.5+12 a.5,.5 0,0,0 0+1 .5,.5 0,0,0 0-1 z"/>
   <path d="m136+6.5 h2 a1.5,1.5 0,0,0 1.5-1.5 v-4.5 h-2.5 a1.5,1.5 0,0,0 0+3 h2.5"/>
   <path d="m147+6.5 h2 a1.5,1.5 0,0,0 1.5-1.5 v-4.5 h-2.5 a1.5,1.5 0,0,0 0+3 h2.5"/>
   <path d="m147.5+10.5 l2-1.5"/>
   <path d="m158+6.5 h2 a1.5,1.5 0,0,0 1.5-1.5 v-4.5 h-2.5 a1.5,1.5 0,0,0 0+3 h2.5"/>
   <path d="m158.5+9 l2+1.5"/>
   <path d="m169+6.5 h2 a1.5,1.5 0,0,0 1.5-1.5 v-4.5 h-2.5 a1.5,1.5 0,0,0 0+3 h2.5"/>
   <path d="m169+9 l1.5+1.5 1.5-1.5"/>
   <path d="m180+6.5 h2 a1.5,1.5 0,0,0 1.5-1.5 v-4.5 h-2.5 a1.5,1.5 0,0,0 0+3 h2.5"/>
   <path d="m179.5+9.5 l0.4+.3 a1,1 0,0,0 1.2+0 l0.8-.6 a1,1 0,0,1 1.2+0 l0.4+.3"/>
   <path d="m191+6.5 h2 a1.5,1.5 0,0,0 1.5-1.5 v-4.5 h-2.5 a1.5,1.5 0,0,0 0+3 h2.5"/>
   <path d="m191+9.5 v-.5 m3+.5 v-.5"/>
   <path d="m202+6.5 h2 a1.5,1.5 0,0,0 1.5-1.5 v-4.5 h-2.5 a1.5,1.5 0,0,0 0+3 h2.5"/>
   <path d="m203.5+9 a1.25,1.25 0,0,0 0+2.5 1.25,1.25 0,0,0 0-2.5 z"/>
   <path d="m213+6.5 h2 a1.5,1.5 0,0,0 1.5-1.5 v-4.5 h-2.5 a1.5,1.5 0,0,0 0+3 h2.5"/>
   <path d="m213+11 a1.5,1.5 0,0,1 3+0"/>
   <path d="m224+6.5 h2 a1.5,1.5 0,0,0 1.5-1.5 v-4.5 h-2.5 a1.5,1.5 0,0,0 0+3 h2.5"/>
   <path d="m223+9.5 h5"/>
   <path d="m234+6.5 h1 a1.5,1.5 0,0,0 1.5-1.5 v-4.5 h-1.5 a1.5,1.5 0,0,0 0+3 h4.5 v1.5 a1.5,1.5 0,0,1 -3+0 v-3 a1.5,1.5 0,0,1 1.5-1.5 h1.5"/>
   <path d="m245.5+9.5 v-9 h2.5 a1.5,1.5 0,0,1 1.5+1.5 v3 a1.5,1.5 0,0,1 -1.5+1.5 h-2.5"/>
   <path d="m260+.5 h-1.5 a1.5,1.5 0,0,0 -1.5+1.5 v3 a1.5,1.5 0,0,0 1.5+1.5 h1.5"/>
   <path d="m271+.5 h-1.5 a1.5,1.5 0,0,0 -1.5+1.5 v3 a1.5,1.5 0,0,0 1.5+1.5 h1.5"/>
   <path d="m268.5+9 l2+1.5"/>
   <path d="m282+.5 h-1.5 a1.5,1.5 0,0,0 -1.5+1.5 v3 a1.5,1.5 0,0,0 1.5+1.5 h1.5"/>
   <path d="m279+9 l1.5+1.5 1.5-1.5"/>
   <path d="m293+.5 h-1.5 a1.5,1.5 0,0,0 -1.5+1.5 v3 a1.5,1.5 0,0,0 1.5+1.5 h1.5"/>
   <path d="m290+10.5 l1.5-1.5 1.5+1.5"/>
   <path d="m304+.5 h-1.5 a1.5,1.5 0,0,0 -1.5+1.5 v3 a1.5,1.5 0,0,0 1.5+1.5 h1.5"/>
   <path d="m302.5+.5 l-.5-2"/>
   <path d="m315.5+9.5 v-9 h-2.5 a1.5,1.5 0,0,0 -1.5+1.5 v3 a1.5,1.5 0,0,0 1.5+1.5 h2.5"/>
   <path d="m326.5+9.5 v-9 h-2.5 a1.5,1.5 0,0,0 -1.5+1.5 v3 a1.5,1.5 0,0,0 1.5+1.5 h2.5"/>
   <path d="m323+13 l1.5-1.5 1.5+1.5"/>
   <path d="m337.5+9.5 v-9 h-2.5 a1.5,1.5 0,0,0 -1.5+1.5 v3 a1.5,1.5 0,0,0 1.5+1.5 h2.5"/>
   <path d="m337.5+12 v-2.5 m-2+0 h4"/>
   <path d="m348.5+.5 h-2.5 a1.5,1.5 0,0,0 -1.5+1.5 v2.5 a2,2 0,0,0 4+0 v-1 h-4"/>
   <path d="m359.5+.5 h-2.5 a1.5,1.5 0,0,0 -1.5+1.5 v2.5 a2,2 0,0,0 4+0 v-1 h-4"/>
   <path d="m356.5+10.5 l2-1.5"/>
   <path d="m370.5+.5 h-2.5 a1.5,1.5 0,0,0 -1.5+1.5 v2.5 a2,2 0,0,0 4+0 v-1 h-4"/>
   <path d="m367.5+9 l2+1.5"/>
   <path d="m381.5+.5 h-2.5 a1.5,1.5 0,0,0 -1.5+1.5 v2.5 a2,2 0,0,0 4+0 v-1 h-4"/>
   <path d="m378+9 l1.5+1.5 1.5-1.5"/>
   <path d="m392.5+.5 h-2.5 a1.5,1.5 0,0,0 -1.5+1.5 v2.5 a2,2 0,0,0 4+0 v-1 h-4"/>
   <path d="m389+9.5 v-.5 m3+.5 v-.5"/>
   <path d="m403.5+.5 h-2.5 a1.5,1.5 0,0,0 -1.5+1.5 v2.5 a2,2 0,0,0 4+0 v-1 h-4"/>
   <path d="m400+10.5 l1.5-1.5 1.5+1.5"/>
   <path d="m414.5+.5 h-2.5 a1.5,1.5 0,0,0 -1.5+1.5 v2.5 a2,2 0,0,0 4+0 v-1 h-4"/>
   <path d="m412.5+9.5 a.5,.5 0,0,0 0+1 .5,.5 0,0,0 0-1 z"/>
   <path d="m425.5+.5 h-2.5 a1.5,1.5 0,0,0 -1.5+1.5 v2.5 a2,2 0,0,0 4+0 v-1 h-4"/>
   <path d="m423+.5 l-.5-2"/>
   <path d="m434.5+.5 v7.5 a1.5,1.5 0,0,0 1.5+1.5 h0.5 m-3-3 h3"/>
   <path d="m447.5+.5 h-2.5 a1.5,1.5 0,0,0 -1.5+1.5 v3 a1.5,1.5 0,0,0 1.5+1.5 h2.5 v-7.5 a1.5,1.5 0,0,0 -1.5-1.5 h-2"/>
   <path d="m458.5+.5 h-2.5 a1.5,1.5 0,0,0 -1.5+1.5 v3 a1.5,1.5 0,0,0 1.5+1.5 h2.5 v-7.5 a1.5,1.5 0,0,0 -1.5-1.5 h-2"/>
   <path d="m455+9 l1.5+1.5 1.5-1.5"/>
   <path d="m469.5+.5 h-2.5 a1.5,1.5 0,0,0 -1.5+1.5 v3 a1.5,1.5 0,0,0 1.5+1.5 h2.5 v-7.5 a1.5,1.5 0,0,0 -1.5-1.5 h-2"/>
   <path d="m466+11 a1.5,1.5 0,0,1 3+0"/>
   <path d="m480.5+.5 h-2.5 a1.5,1.5 0,0,0 -1.5+1.5 v3 a1.5,1.5 0,0,0 1.5+1.5 h2.5 v-7.5 a1.5,1.5 0,0,0 -1.5-1.5 h-2"/>
   <path d="m478.5+9.5 a.5,.5 0,0,0 0+1 .5,.5 0,0,0 0-1 z"/>
   <path d="m487.5+.5 v9 m0-3 h2.5 a1.5,1.5 0,0,0 1.5-1.5 v-4.5"/>
   <path d="m498.5+.5 v9 m0-3 h2.5 a1.5,1.5 0,0,0 1.5-1.5 v-4.5"/>
   <path d="m499+12 l1.5+1.5 1.5-1.5"/>
   <path d="m509.5+.5 v9 m0-3 h2.5 a1.5,1.5 0,0,0 1.5-1.5 v-4.5"/>
   <path d="m509.5+12 v-2.5 m-1.5+0 h3"/>
   <path d="m522.5+.5 v6 m0+2.5 v0.5"/>
  </g>
  <g id="l.3">
   <path d="m5.5+.5 v6"/>
   <path d="m4.5+10.5 l2-1.5"/>
   <path d="m16.5+.5 v6"/>
   <path d="m15.5+9 l2+1.5"/>
   <path d="m27.5+.5 v6"/>
   <path d="m26+9 l1.5+1.5 1.5-1.5"/>
   <path d="m38.5+.5 v6"/>
   <path d="m36.5+9.5 l0.4+.3 a1,1 0,0,0 1.2+0 l0.8-.6 a1,1 0,0,1 1.2+0 l0.4+.3"/>
   <path d="m49.5+.5 v6"/>
   <path d="m47.5+9 v0.5 m4-.5 v0.5"/>
   <path d="m60.5+.5 v6"/>
   <path d="m58+9.5 h5"/>
   <path d="m71.5+.5 v6 m0+2.5 v0.5"/>
   <path d="m71.5+.5 l-1-2"/>
   <path d="m81.5-2.5 h0.5 a1.5,1.5 0,0,1 1.5+1.5 v7.5 m0+2.5 v0.5"/>
   <path d="m91.5+9.5 v-9 m0+3 l4+3 m0-6 l-2.1+3.99"/>
   <path d="m102.5+9.5 v-9 m0+3 l4+3 m0-6 l-2.1+3.99"/>
   <path d="m102.5+.5 l-.5-2"/>
   <path d="m115.5+9.5 v-8 a1,1 0,0,1 1-1"/>
   <path d="m126.5+9.5 v-8 a1,1 0,0,1 1-1"/>
   <path d="m125.5+12 l2+1.5"/>
   <path d="m137.5+9.5 v-8 a1,1 0,0,1 1-1"/>
   <path d="m136+13.5 l1.5-1.5 1.5+1.5"/>
   <path d="m148.5+9.5 v-8 a1,1 0,0,1 1-1"/>
   <path d="m146.5+0 l-.5-1.5"/>
   <path d="m159.5+9.5 v-8 a1,1 0,0,1 1-1"/>
   <path d="m158+5 l3+2"/>
   <path d="m167.5+.5 v6 h4.5 a1.5,1.5 0,0,0 1.5-1.5 v-4.5 m-3+0 v6"/>
   <path d="m179.5+.5 v6 h2.5 a1.5,1.5 0,0,0 1.5-1.5 v-4.5"/>
   <path d="m190.5+.5 v6 h2.5 a1.5,1.5 0,0,0 1.5-1.5 v-4.5"/>
   <path d="m191.5+9 l2+1.5"/>
   <path d="m201.5+.5 v6 h2.5 a1.5,1.5 0,0,0 1.5-1.5 v-4.5"/>
   <path d="m201.5+9.5 l0.4+.3 a1,1 0,0,0 1.2+0 l0.8-.6 a1,1 0,0,1 1.2+0 l0.4+.3"/>
   <path d="m212.5+.5 v6 h2.5 a1.5,1.5 0,0,0 1.5-1.5 v-4.5"/>
   <path d="m213+10.5 l1.5-1.5 1.5+1.5"/>
   <path d="m223.5+.5 v6 h2.5 a1.5,1.5 0,0,0 1.5-1.5 v-4.5"/>
   <path d="m223.5+.5 l-.5-2"/>
   <path d="m234.5+.5 v6 h2.5 a1.5,1.5 0,0,0 1.5-1.5 v-7.5 h-.5 a1.5,1.5 0,0,0 -1.5+1.5"/>
   <path d="m245.5+4.5 a2,2 0,0,0 4+0 v-2 a2,2 0,0,0 -4+0 v2 z"/>
   <path d="m256.5+4.5 a2,2 0,0,0 4+0 v-2 a2,2 0,0,0 -4+0 v2 z"/>
   <path d="m257.5+10.5 l2-1.5"/>
   <path d="m267.5+4.5 a2,2 0,0,0 4+0 v-2 a2,2 0,0,0 -4+0 v2 z"/>
   <path d="m268.5+9 l2+1.5"/>
   <path d="m278.5+4.5 a2,2 0,0,0 4+0 v-2 a2,2 0,0,0 -4+0 v2 z"/>
   <path d="m279+9 l1.5+1.5 1.5-1.5"/>
   <path d="m289.5+4.5 a2,2 0,0,0 4+0 v-2 a2,2 0,0,0 -4+0 v2 z"/>
   <path d="m289.5+9.5 l0.4+.3 a1,1 0,0,0 1.2+0 l0.8-.6 a1,1 0,0,1 1.2+0 l0.4+.3"/>
   <path d="m300.5+4.5 a2,2 0,0,0 4+0 v-2 a2,2 0,0,0 -4+0 v2 z"/>
   <path d="m301+9.5 v-.5 m3+.5 v-.5"/>
   <path d="m311.5+4.5 a2,2 0,0,0 4+0 v-2 a2,2 0,0,0 -4+0 v2 z"/>
   <path d="m310.5+9 l2+1.5 m2-1.5 l2+1.5"/>
   <path d="m322.5+4.5 a2,2 0,0,0 4+0 v-2 a2,2 0,0,0 -4+0 v2 z"/>
   <path d="m322+9.5 h5"/>
   <path d="m333.5+4.5 a2,2 0,0,0 4+0 v-2 a2,2 0,0,0 -4+0 v2 z"/>
   <path d="m332.5+.5 l6+6"/>
   <path d="m344.5+2 h4 m-4+5.5 a2,2 0,0,0 4+0 v-1 a2,2 0,0,0 -4+0 v1 z"/>
   <path d="m357.5+2.5 a2,2 0,0,0 -4+0 v2 a2,2 0,0,0 4+0 v-2 z m0+1 h4 v1 a2,2 0,0,1 -4+0 v-2.5 a1.5,1.5 0,0,1 1.5-1.5 h2.5"/>
   <path d="m366.5-2.5 v9 h2.5 a1.5,1.5 0,0,0 1.5-1.5 v-3 a1.5,1.5 0,0,0 -1.5-1.5 h-2.5"/>
   <path d="m377.5-2.5 v11.5 m0-2.5 h2.5 a1.5,1.5 0,0,0 1.5-1.5 v-3 a1.5,1.5 0,0,0 -1.5-1.5 h-2.5"/>
   <path d="m392.5+.5 h-2.5 a1.5,1.5 0,0,0 -1.5+1.5 v3 a1.5,1.5 0,0,0 1.5+1.5 h2.5 v-9 "/>
   <path d="m400.5+.5 v6 h3 v-1"/>
   <path d="m411.5+.5 v6 h3 v-1"/>
   <path d="m411.5+9 l2+1.5"/>
   <path d="m422.5+.5 v6 h3 v-1"/>
   <path d="m422.5+10.5 l1.5-1.5 1.5+1.5"/>
   <path d="m433.5+.5 v6 h3 v-1"/>
   <path d="m436.5+0 l-.5-1.5"/>
   <path d="m7+6 a5.3125,5.3125 0,0,1 -2.25+.5 1.25,1.25 0,0,1 -.5433607440897888064-2.3757260331813380599 L6.7933607440897888064+2.8757260331813380599 A1.25,1.25 0,0,0 6.25+.5 a7.8125,7.8125 0,0,0 -2.75+.5" transform="translate(440, 0)"/>
   <path d="m7+6 a5.3125,5.3125 0,0,1 -2.25+.5 1.25,1.25 0,0,1 -.5433607440897888064-2.3757260331813380599 L6.7933607440897888064+2.8757260331813380599 A1.25,1.25 0,0,0 6.25+.5 a7.8125,7.8125 0,0,0 -2.75+.5" transform="translate(451, 0)"/>
   <path d="m455+9 l1.5+1.5 1.5-1.5"/>
   <path d="m7+6 a5.3125,5.3125 0,0,1 -2.25+.5 1.25,1.25 0,0,1 -.5433607440897888064-2.3757260331813380599 L6.7933607440897888064+2.8757260331813380599 A1.25,1.25 0,0,0 6.25+.5 a7.8125,7.8125 0,0,0 -2.75+.5" transform="translate(462, 0)"/>
   <path d="m466+10.5 l1.5-1.5 1.5+1.5"/>
   <path d="m7+6 a5.3125,5.3125 0,0,1 -2.25+.5 1.25,1.25 0,0,1 -.5433607440897888064-2.3757260331813380599 L6.7933607440897888064+2.8757260331813380599 A1.25,1.25 0,0,0 6.25+.5 a7.8125,7.8125 0,0,0 -2.75+.5" transform="translate(473, 0)"/>
   <path d="m478+.5 l-.5-2"/>
   <path d="m489.5+.5 v9 m-1-3 h3"/>
   <path d="m500.5+.5 v9 m-1-3 h3"/>
   <path d="m499+13.5 l1.5-1.5 1.5+1.5"/>
   <path d="m511.5+.5 v9 m-1-3 h3"/>
   <path d="m511.5+.5 v-.5 l-.5-1.5"/>
   <path d="m522.5+.5 v9 m-1-3 h3"/>
   <path d="m521.5+2.5 l2+1"/>
  </g>
  <g id="l.4">
   <path d="m3.5+6.5 v-4.5 a1.5,1.5 0,0,1 1.5-1.5 h2.5 v6"/>
   <path d="m14.5+6.5 v-4.5 a1.5,1.5 0,0,1 1.5-1.5 h2.5 v6"/>
   <path d="m15.5+10.5 l2-1.5"/>
   <path d="m25.5+6.5 v-4.5 a1.5,1.5 0,0,1 1.5-1.5 h2.5 v6"/>
   <path d="m26.5+9 l2+1.5"/>
   <path d="m36.5+6.5 v-4.5 a1.5,1.5 0,0,1 1.5-1.5 h2.5 v6"/>
   <path d="m37+9 l1.5+1.5 1.5-1.5"/>
   <path d="m47.5+6.5 v-4.5 a1.5,1.5 0,0,1 1.5-1.5 h2.5 v6"/>
   <path d="m47.5+9.5 l0.4+.3 a1,1 0,0,0 1.2+0 l0.8-.6 a1,1 0,0,1 1.2+0 l0.4+.3"/>
   <path d="m58.5+6.5 v-4.5 a1.5,1.5 0,0,1 1.5-1.5 h2.5 v6"/>
   <path d="m59+9.5 v-.5 m3+.5 v-.5"/>
   <path d="m69.5+6.5 v-4.5 a1.5,1.5 0,0,1 1.5-1.5 h2.5 v6"/>
   <path d="m68.5+9 l2+1.5 m2-1.5 l2+1.5"/>
   <path d="m80.5+6.5 v-4.5 a1.5,1.5 0,0,1 1.5-1.5 h2.5 v6"/>
   <path d="m80+9.5 h5"/>
   <path d="m91.5+6.5 v-4.5 a1.5,1.5 0,0,1 1.5-1.5 h2.5 v6"/>
   <path d="m93.5+9.5 a.5,.5 0,0,0 0+1 .5,.5 0,0,0 0-1 z"/>
   <path d="m102.5+6.5 v-4.5 a1.5,1.5 0,0,1 1.5-1.5 h2.5 v6"/>
   <path d="m104+.5 l-.5-2"/>
   <path d="m113.5+6.5 l2-6 2+6"/>
   <path d="m123.5+6.5 l1.5-6 1.5+4 1.5-4 1.5+6"/>
   <path d="m135.5+.5 l4+6 m-4+0 l4-6"/>
   <path d="m150.5+6.5 l-3-9 h-1 m0+9 l1.9302874897246340598-6"/>
   <path d="m161.5+6.5 l-3-9 h-1 m0+9 l1.9302874897246340598-6"/>
   <path d="m158.5+9 l2+1.5"/>
   <path d="m172.5+6.5 l-3-9 h-1 m0+9 l1.9302874897246340598-6"/>
   <path d="m167.5+9 l2+1.5 m2-1.5 l2+1.5"/>
   <path d="m179.5+6.5 h4 l-4-6 h4"/>
   <path d="m190+.5 v7.5 a1.5,1.5 0,0,0 1.5+1.5 h2 a1.5,1.5 0,0,0 1.5-1.5 v-.5 a1.5,1.5 0,0,0 -1.5-1.5 1.5,1.5 0,0,0 1.5-1.5 v-2.5 a1.5,1.5 0,0,0 -1.5-1.5"/>
   <path d="m202.376404494382+1.20224719101124 a8.6666666666666666667,8.6666666666666666667 0,0,0 0+7.5955056179775280899 1.25,1.25 0,0,0 2.2471910112359550562+0 8.6666666666666666667,8.6666666666666666667 0,0,0 0-7.5955056179775280899 1.25,1.25 0,0,0 -2.2471910112359550562+0 z"/>
   <path d="m213.5+7.5 l2+2 v-9"/>
   <path d="m223.5+8 L223.7676288279027991391+8.4994449069791543428 A2,2 0,1,0 227.1981132075471698113+6.4433962264150943396 L223.5+.5 h4"/>
   <path d="m234.5+9.5 h2 a2,2 0,0,0 0-4 h-1 1 a2,2 0,0,0 2-2 v-1 a2,2 0,0,0 -2-2 h-2"/>
   <path d="m247+9.5 l-2-7 h5 m-1.5+2 v-4"/>
   <path d="m260.5+9.5 h-4 v-4 h2 a2,2 0,0,0 2-2 v-1 a2,2 0,0,0 -2-2 h-2"/>
   <path d="m267.5+5.5 h2 a2,2 0,0,0 2-2 v-1 a2,2 0,0,0 -4+0 v3 a4.1666666666666666667,4.1666666666666666667 0,0,0 3+4"/>
   <path d="m278.5+9.5 h4 l-2-9 m0+5 h2"/>
   <path d="m289.5+8.5 v1 h4 l-2-9"/>
   <path d="m300.5+3.5 a2,2 0,0,0 4+0 v-1 a2,2 0,0,0 -4+0 v1 z m2+2 a2,2 0,0,0 0+4 2,2 0,0,0 0-4 z"/>
   <path d="m315.5+4.5 h-2 a2,2 0,0,0 -2+2 v1 a2,2 0,0,0 4+0 v-3 a4.1666666666666666667,4.1666666666666666667 0,0,0 -3-4"/>
   <path d="m322.5+3.5 h4 m-2-2 v4"/>
   <path d="m333.5+3.5 h4"/>
   <path d="m344.5+1.5 l4+4 m-4+0 l4-4"/>
   <path d="m355.5+.5 l4+9"/>
   <path d="m366.5+.5 h4 m-4+4 h4 m-2-2 v4"/>
   <path d="m377.5+2 h4 m-4+3 h4"/>
   <path d="m388.5+1 h4 m-4+2.5 h4 m-4+2.5 h4"/>
   <path d="m399.5+3.5 h4 m-2-2.5 v0.5 m0+4 v0.5"/>
   <path d="m414.5+2 l-4+1.5 4+1.5"/>
   <path d="m421.5+2 l4+1.5 -4+1.5"/>
   <path d="m432.5+1 h4 m0+2.5 l-4+1.5 4+1.5"/>
   <path d="m443.5+1 h4 m-4+2.5 l4+1.5 -4+1.5"/>
   <path d="m456+1 l-2+2.5 2+2.5 m3-5 l-2+2.5 2+2.5"/>
   <path d="m465+1 l2+2.5 -2+2.5 m3-5 l2+2.5 -2+2.5"/>
   <path d="m479-.5 a15.625,15.625 0,0,0 0+11"/>
   <path d="m489+10.5 a15.625,15.625 0,0,0 0-11"/>
   <path d="m501-.5 h-1 v11 h1"/>
   <path d="m511-.5 h1 v11 h-1"/>
   <path d="m523.5-.5 a1,1 0,0,0 -1+1 v3.5 a1,1 0,0,1 -1+1 1,1 0,0,1 1+1 v3.5 a1,1 0,0,0 1+1"/>
  </g>
  <g id="l.5">
   <path d="m4.5-.5 a1,1 0,0,1 1+1 v3.5 a1,1 0,0,0 1+1 1,1 0,0,0 -1+1 v3.5 a1,1 0,0,1 -1+1"/>
   <path d="m12.5+.5 l8+9 m-8-1.5 a1.5,1.5 0,0,0 3+0 1.5,1.5 0,0,0 -3+0 z m5-6 a1.5,1.5 0,0,0 3+0 1.5,1.5 0,0,0 -3+0 z"/>
   <path d="m27.5+5 a1.75,1.75 0,0,0 3.5+0 1.75,1.75 0,0,0 -3.5+0 1.75,1.75 0,0,1 -3.5+0 1.75,1.75 0,0,1 3.5+0 z"/>
   <path d="m34.5+6.5 l2-6 4+13 h3.5"/>
   <path d="m47.5+2 l0.4+.3 a1,1 0,0,0 1.2+0 l0.8-.6 a1,1 0,0,1 1.2+0 l0.4+.3 m-4+3 l0.4+.3 a1,1 0,0,0 1.2+0 l0.8-.6 a1,1 0,0,1 1.2+0 l0.4+.3"/>
   <path d="m58.5+3 l0.4+.3 a1,1 0,0,0 1.2+0 l0.8-.6 a1,1 0,0,1 1.2+0 l0.4+.3"/>
   <path d="m71.5+.5 v0.5 m0+2.5 v6"/>
   <path d="m3.5+9 a6.5,6.5 0,0,0 2.5+.5 1.5,1.5 0,0,0 1.0453220144929673320-2.5757796642511721113 L5.8031186570046884453+5.7171864428341147409 A1,1 0,0,1 5.5+5 v-1.5 m0-2.5 v-.5" transform="translate(77, 0)"/>
   <path d="m7.5+.5 l-4.2650437815851330641+6.6939824873659467744 A1.5,1.5 0,1,0 5.7339690838647579533+7.1471692430112701706 L2.7660309161352420467+2.8528307569887298294 A1.5,1.5 0,0,1 4.9+.8 L8.5+3.5" transform="translate(88, 0)"/>
   <path d="m104.25+7.5 l0.5+2"/>
   <path d="m114+7.5 l0.5+2 m2-2 l0.5+2"/>
   <path d="m126.25-1.5 l0.5+2"/>
   <path d="m137-1.5 l0.5+2 m0+3.5 v0.5"/>
   <path d="m148.5+.5 v0.5"/>
   <path d="m159.5+1 v0.5 m0+3.5 v0.5"/>
   <path d="m168.5+9.5 l4-9"/>
   <path d="m176-2.5 h11"/>
   <path d="m195.75+1.5 a1.5,1.5 0,0,0 -1.4142135623730950488-1 h-5.0857864376269049512 l3+4.5 -3+4.5 h5"/>
   <path d="m201.5-2.5 h0.5 a1.5,1.5 0,0,1 1.5+1.5 v13 a1.5,1.5 0,0,0 1.5+1.5 h0.5"/>
   <path d="m217.5+.5 l-6+3 6+3 m-2-6 v6"/>
   <path d="m222.5+6.5 l6-3 -6-3 v6 z"/>
   <path d="m239.5+.5 l-6+3 6+3 v-6 z"/>
   <path d="m245+2 h4 m-4+3 h4 m-3.5-4.5 l2.5+6"/>
   <path d="m257+.5 v9 m3-9 v9 m-4.5-3 h6 m-6-3 h6"/>
   <path d="m267.5+1.5 h4 m-4+3 h4 m-4+3 l2+2 2-2"/>
   <path d="m277.5+.5 h6 v6 h-6 v-6 z"/>
   <path d="m291.5+2 a3,3 0,0,0 0+6 3,3 0,0,0 0-6 z m-1.5-1.5 l3+9"/>
   <path d="m298.5+4.5 l8-4 h-8 v4 z"/>
   <path d="m309.5+4.5 l8-2 -8-2 v4 z"/>
   <path d="m7.5+8 a6.5,6.5 0,0,1 -2.5+.5 1.5,1.5 0,0,1 -.7335625146163023874-2.8083906286540755968 L6.7335625146163023874+4.3083906286540755968 A1.5,1.5 0,0,0 6+1.5 a6.55,6.55 0,0,0 -2.5+.5 m2-1.5 v9" transform="translate(319, 0)"/>
   <path d="m337.5+.5 h-2.5 a1.5,1.5 0,0,0 -1.5+1.5 v3 a1.5,1.5 0,0,0 1.5+1.5 h2.5 m-1.5-7.5 v9"/>
   <path d="m349.5+2 a1.5,1.5 0,0,0 -1.5-1.5 h-4.5 a1.5,1.5 0,0,1 1.5+1.5 v5.5 a2,2 0,0,0 4+0 m-5.5-2.5 h3.5"/>
   <path d="m354.5+9.5 l2.6-3.9 m0.8+0 l2.6+3.9 m-3-9 v4.5 m-3-2 h6 m-6+2.5 h2.5 m1+0 h2.5"/>
   <path d="m364.5-1.5 v9 h2 a2.5,2.5 0,0,0 0-5 h-2 m5.5+0 h2.5 m-1.5-4 v6"/>
   <path d="m379-2.5 a3.5,3.5 0,0,0 -3.5+3.5 v4.5 a4,4 0,0,0 8+0 v-3.75 a1.25,1.25 0,0,0 -2.5+0 v4.75 h-1.5 a1.5,1.5 0,0,1 -1.5-1.5 v-3 a1.5,1.5 0,0,1 3+0"/>
   <path d="m390.5+1.5 a4,4 0,0,0 0+8 4,4 0,0,0 0-8 z m1+2 h-1.5 a1,1 0,0,0 -1+1 v2 a1,1 0,0,0 1+1 h1.5"/>
   <path d="m401.5+1.5 a4,4 0,0,0 0+8 4,4 0,0,0 0-8 z m-1+2 v4 h1 a1,1 0,0,0 0-2 h-1 m2-2 l-1+2"/>
   <path d="m413+3 h-2 a1,1 0,0,0 -1+1 v3 a1,1 0,0,0 1+1 h2 m2-7.5 h-3 v5"/>
   <path d="m419.5+.5 a3.5,3.5 0,0,0 7+0 m1+3 l-1-3 -2.7838821814150109611+1.5"/>
   <path d="m432.25+.5 a1.75,1.75 0,0,1 0+3.5 1.75,1.75 0,0,1 0-3.5 h3 m3.25+0 l-3-.5 v1 l3-.5 z"/>
   <path d="m443.5+.5 v6.5 a2,2 0,0,0 4+0 v-6.5"/>
  </g>
  <g id="g.0">
   <path d="m2.5+.5 l3+9 3-9 m-5+2.5 h4"/>
   <path d="m14+.5 v9 h2.25 a2.25,2.25 0,0,0 0-4.5 h-2.25 2.75 a2.25,2.25 0,0,0 0-4.5 h-2.75 z"/>
   <path d="m25.5+.5 v9 h4.5"/>
   <path d="m35.5+.5 l3+9 3-9 h-6 z"/>
   <path d="m52+.5 h-4.5 v9 h4.5 m-4.5-4.5 h3.5"/>
   <path d="m58+9.5 h5 l-5-9 h5"/>
   <path d="m69+.5 v9 m5-9 v9 m-5-4.5 h5"/>
   <path d="m80+7 a2.5,2.5 0,0,0 5+0 v-4 a2.5,2.5 0,0,0 -5+0 v4 z m2-2 h1"/>
   <path d="m93.5+.5 v9"/>
   <path d="m3.5+.5 v9 M8+9.5 l-4.5-5.3168100024106759801 M8+.5 l-2.8622985839989158807+5.5" transform="translate(99, 0)"/>
   <path d="m112.5+.5 l3+9 3-9"/>
   <path d="m123.5+.5 v9 l3-5 3+5 v-9"/>
   <path d="m135+.5 v9 l5-9 v9"/>
   <path d="m146+.5 h5 m-3.5+4.5 h2 m-3.5+4.5 h5"/>
   <path d="m157+7 a2.5,2.5 0,0,0 5+0 v-4 a2.5,2.5 0,0,0 -5+0 v4 z"/>
   <path d="m168+.5 v9 h5 v-9"/>
   <path d="m179+.5 v9 h2.75 a2.25,2.25 0,0,0 0-4.55 h-2.25"/>
   <path d="m195+.5 h-5 l2+4.5 -2+4.5 h5"/>
   <path d="m201+9.5 h5 m-2.5+0 v-9"/>
   <path d="m3+9.5 L5.5+4.9641662765294238367 8+9.5 m-2.5-9 v4.5" transform="translate(209, 0)"/>
   <path d="m223.5+.5 h2 v9 h2 m-2.5-7.5 a3,3 0,0,0 0+6 h1 a3,3 0,0,0 0-6 h-1 z"/>
   <path d="m234+.5 l5+9 m-5+0 l5-9"/>
   <path d="m247.5+.5 v9 m-3+0 v-3.5 a3,3 0,0,1 6+0 v3.5"/>
   <path d="m2.5+.5 h1.5 V2.9019237886466840597 A3,3 0,0,0 2.5+5.5 v1 a3,3 0,0,0 6+0 v-1 A3,3 0,0,0 7+2.9019237886466840597 V.5 h1.5" transform="translate(253, 0)"/>
   <path d="m8+6.5 L5.8846153846153846154+1.4230769230769230769 A1.5,1.5 0,0,0 3+2 v3 A1.5,1.5 0,0,0 5.9026436367813453155+5.5315927277501089319 L7.5649042421457697897+1.1456048481665940454 A1,1 0,0,1 8.5+.5" transform="translate(264, 0)"/>
   <path d="m278-2.5 v10 a2,2 0,0,0 2+2 h1 a1.5,1.5 0,0,0 1.5-1.5 v-1 a1.5,1.5 0,0,0 -1.5-1.5 2,2 0,0,0 2-2 v-1 a2,2 0,0,0 -2-2"/>
   <path d="m289+6.5 a8.5,8.5 0,0,0 4.5-7.5 1.5,1.5 0,0,0 -3+0 9.7857142857142857143,9.7857142857142857143 0,0,0 3.5+7.5"/>
   <path d="m7.5+4.5 a2,2 0,0,1 -4+0 v-2 a2,2 0,0,1 4+0 v2 A2,2 0,0,1 6.6409636448331086846+6.1426204556041385856 L4.4295181775834456577+7.6786897721979307072 A1,1 0,0,0 5+9.5 h2" transform="translate(297, 0)"/>
   <path d="m315.5+1 a6.5,6.5 0,0,0 -2.5-.5 1.5,1.5 0,0,0 0+3 h0.5 -.5 a1.5,1.5 0,0,0 0+3 6.5,6.5 0,0,0 2.5-.5"/>
   <path d="m6.5-2.5 a1,1 0,0,1 1+1 v1 a1,1 0,0,1 -1+1 h-1.5 A1.5,1.5 0,0,0 3.6012210396180735182+2.5416801823888861321 A17.251246182251764272,17.251246182251764272 0,0,0 7+8 h-2.5 a1,1 0,0,0 -1+1 v0.5" transform="translate(319, 0)"/>
   <path d="m333+6.5 a1,1 0,0,0 1-1 v-5 m0+4 a2,2 0,0,0 4+0 v-7"/>
   <path d="m343+3.5 h0.5 a1,1 0,0,0 1-1 2,2 0,0,1 4+0 v5.25 a1.75,1.75 0,1,1 -1.75-1.75 h2.75"/>
   <path d="m356+6.5 v-4 a2,2 0,0,1 3.4142135623730950488-1.4142135623730950488"/>
   <path d="m3+6.5 a1,1 0,0,0 1-1 v-5 m3.5+6 l-3.5-4.3229670385730991937 M8+.5 a1,1 0,0,0 -.85065676922629520167+.47427853290028040859 l-1.75+2.8316312711340118998" transform="translate(363, 0)"/>
   <path d="m3.5+9.5 A1,1 0,0,0 4.4464870826702136076+8.8227416960022801763 L7.0535129173297863924+1.1772583039977198237 A1,1 0,0,1 8+.5 m-5+0 l2.25+5.5" transform="translate(374, 0)"/>
   <path d="m388.5-2.5 v9 m0-4 a2,2 0,0,1 4+0 m0+4 v-5 a1,1 0,0,1 1-1"/>
   <path d="m3+6.5 A1,1 0,0,0 3.9812935555395139967+5.6925174222158055987 L5+.5 a10.5,10.5 0,0,1 3+6" transform="translate(396, 0)"/>
   <path d="m410+9.5 a1,1 0,0,1 1-1 h3 m-1.5+0 a1.5,1.5 0,0,1 0-3 h1.5 m-1.5+0 a2.5,2.5 0,0,1 0-5 h1.5 a1,1 0,0,0 1-1 v-1 a1,1 0,0,0 -1-1"/>
   <path d="m421.5+4.5 a2,2 0,0,0 4+0 v-2 a2,2 0,0,0 -4+0 v2 z"/>
   <path d="m432+.5 a1,1 0,0,1 1+1 v5 m-1.5+0 h6 m-1.5+0 v-5 a1,1 0,0,1 1-1"/>
   <path d="m443.5+2.5 a2,2 0,0,1 4+0 v2 a2,2 0,0,1 -4+0 v-2 z a2,2 0,0,1 .4-1.2 l0.6-.8 a2.5,2.5 0,0,0 0-3"/>
   <path d="m454+4.5 a2,2 0,0,0 4+0 v-2 a2,2 0,0,0 -4+0 v2 z m2+2 h2.5 a1,1 0,0,1 1+1"/>
   <path d="m465+6.5 h5.5 m-3+0 v-4.5 a1.5,1.5 0,0,1 1.5-1.5"/>
   <path d="m475.5+6.5 a1,1 0,0,0 1-1 v-3 a2,2 0,0,1 2-2 h1 a2,2 0,0,1 2+2 v4"/>
   <path d="m486.5+6.5 v-3 a3,3 0,0,1 6+0 v1.5 a1.5,1.5 0,0,1 -3+0 v-7.5"/>
   <path d="m3.5-2.5 l4+9 M3+6.5 A1,1 0,0,0 3.9265702953700714643+5.8761216395500510459 L7.0734297046299285357-1.8761216395500510459 A1,1 0,0,1 8-2.5" transform="translate(495, 0)"/>
   <path d="m508.5+6.5 v-3 a3,3 0,0,1 6+0 v3 m-3+2 v-11"/>
   <path d="m519.75+6.5 a11.041666666666666667,11.041666666666666667 0,0,1 -.75-4 2,2 0,0,1 2-2 1.5,1.5 0,0,1 1.5+1.5 v1.5 -1.5 a1.5,1.5 0,0,1 1.5-1.5 2,2 0,0,1 2+2 11.041666666666666667,11.041666666666666667 0,0,1 -.75+4"/>
  </g>
 </defs>
 <g transform="translate(16, 32) scale(1, -1)" fill="none" stroke="black" stroke-width="1" stroke-linecap="round" stroke-linejoin="round">
  <g>
   <path d="m1.5+9.5 v-9 h4"/>
   <path d="m12.5+.5 h-2.5 a1.5,1.5 0,0,0 -1.5+1.5 v2.5 a2,2 0,0,0 4+0 v-1 h-4"/>
   <path d="m16.5+.5 v9 m-1-3 h3"/>
   <path d="m22.5+.5 v9 m-1-3 h3"/>
   <path d="m31.5+.5 h-2.5 a1.5,1.5 0,0,0 -1.5+1.5 v2.5 a2,2 0,0,0 4+0 v-1 h-4"/>
   <path d="m34.5+.5 v6 h3 v-1"/>
   <path d="m40.5+.5 v6 m0+2.5 v0.5"/>
   <path d="m43.5+.5 v6 h2.5 a1.5,1.5 0,0,0 1.5-1.5 v-4.5"/>
   <path d="m54.5+.5 h-2.5 a1.5,1.5 0,0,0 -1.5+1.5 v3 a1.5,1.5 0,0,0 1.5+1.5 h2.5 v-7.5 a1.5,1.5 0,0,0 -1.5-1.5 h-2"/>
   <path d="m63.5+.5 v9"/>
   <path d="m71+9 a6.5,6.5 0,0,1 -2.5+.5 2,2 0,0,1 -.9085683308339920508-3.7817136661667984101 L70.4085683308339920508+4.2817136661667984101 A2,2 0,0,0 69.5+.5 a5,5 0,0,0 -3+1"/>
   <path d="m74.5+7 a2.5,2.5 0,0,0 5+0 v-4 a2.5,2.5 0,0,0 -5+0 v4 z"/>
   <path d="m88.5+9.5 h2 a2,2 0,0,0 0-4 h-1 1 a2,2 0,0,0 2-2 v-1 a2,2 0,0,0 -2-2 h-2"/>
   <path d="m96.376404494382+1.20224719101124 a8.6666666666666666667,8.6666666666666666667 0,0,0 0+7.5955056179775280899 1.25,1.25 0,0,0 2.2471910112359550562+0 8.6666666666666666667,8.6666666666666666667 0,0,0 0-7.5955056179775280899 1.25,1.25 0,0,0 -2.2471910112359550562+0 z"/>
   <path d="m106.5+4.5 h-2 a2,2 0,0,0 -2+2 v1 a2,2 0,0,0 4+0 v-3 a4.1666666666666666667,4.1666666666666666667 0,0,0 -3-4"/>
   <path d="m109.5+3.5 a2,2 0,0,0 4+0 v-1 a2,2 0,0,0 -4+0 v1 z m2+2 a2,2 0,0,0 0+4 2,2 0,0,0 0-4 z"/>
   <path d="m122.5+3.5 h4"/>
   <path d="m139.5+.5 h-2 a2,2 0,0,0 -2+2 v5 a2,2 0,0,0 2+2 h2"/>
   <path d="m142.5+.5 v9 h2.5 a2,2 0,0,0 0-4 2.5,2.5 0,0,0 0-5 h-2.5 z m0+5 h2.5"/>
   <path d="m156.5+9.5 h5 m-2.5+0 v-9"/>
   <path d="m163.5+9.5 l3-9 3+9"/>
   <path d="m172.5+9.5 v-9 h4"/>
   <path d="m1.5-2.5 h46 m10+0 h119"/>
   <use xlink:href="#l.0" transform="translate(0,  -26)"/>
   <use xlink:href="#l.1" transform="translate(0,  -45)"/>
   <use xlink:href="#l.2" transform="translate(0,  -64)"/>
   <use xlink:href="#l.3" transform="translate(0,  -83)"/>
   <use xlink:href="#l.4" transform="translate(0, -102)"/>
   <use xlink:href="#l.5" transform="translate(0, -121)"/>
  </g>
  <g transform="translate(0, -154)">
   <path d="m1.5+9.5 v-9 h4"/>
   <path d="m12.5+.5 h-2.5 a1.5,1.5 0,0,0 -1.5+1.5 v2.5 a2,2 0,0,0 4+0 v-1 h-4"/>
   <path d="m16.5+.5 v9 m-1-3 h3"/>
   <path d="m22.5+.5 v9 m-1-3 h3"/>
   <path d="m31.5+.5 h-2.5 a1.5,1.5 0,0,0 -1.5+1.5 v2.5 a2,2 0,0,0 4+0 v-1 h-4"/>
   <path d="m34.5+.5 v6 h3 v-1"/>
   <path d="m40.5+.5 v6 m0+2.5 v0.5"/>
   <path d="m43.5+.5 v6 h2.5 a1.5,1.5 0,0,0 1.5-1.5 v-4.5"/>
   <path d="m54.5+.5 h-2.5 a1.5,1.5 0,0,0 -1.5+1.5 v3 a1.5,1.5 0,0,0 1.5+1.5 h2.5 v-7.5 a1.5,1.5 0,0,0 -1.5-1.5 h-2"/>
   <path d="m63.5+.5 v9"/>
   <path d="m71+9 a6.5,6.5 0,0,1 -2.5+.5 2,2 0,0,1 -.9085683308339920508-3.7817136661667984101 L70.4085683308339920508+4.2817136661667984101 A2,2 0,0,0 69.5+.5 a5,5 0,0,0 -3+1"/>
   <path d="m74.5+7 a2.5,2.5 0,0,0 5+0 v-4 a2.5,2.5 0,0,0 -5+0 v4 z"/>
   <path d="m88.5+9.5 h2 a2,2 0,0,0 0-4 h-1 1 a2,2 0,0,0 2-2 v-1 a2,2 0,0,0 -2-2 h-2"/>
   <path d="m96.376404494382+1.20224719101124 a8.6666666666666666667,8.6666666666666666667 0,0,0 0+7.5955056179775280899 1.25,1.25 0,0,0 2.2471910112359550562+0 8.6666666666666666667,8.6666666666666666667 0,0,0 0-7.5955056179775280899 1.25,1.25 0,0,0 -2.2471910112359550562+0 z"/>
   <path d="m106.5+4.5 h-2 a2,2 0,0,0 -2+2 v1 a2,2 0,0,0 4+0 v-3 a4.1666666666666666667,4.1666666666666666667 0,0,0 -3-4"/>
   <path d="m109.5+3.5 a2,2 0,0,0 4+0 v-1 a2,2 0,0,0 -4+0 v1 z m2+2 a2,2 0,0,0 0+4 2,2 0,0,0 0-4 z"/>
   <path d="m122.5+3.5 h4"/>
   <path d="m139.5+.5 h-2 a2,2 0,0,0 -2+2 v5 a2,2 0,0,0 2+2 h2"/>
   <path d="m142.5+.5 v9 h2.5 a2,2 0,0,0 0-4 2.5,2.5 0,0,0 0-5 h-2.5 z m0+5 h2.5"/>
   <path d="m156.5+9.5 h5 m-2.5+0 v-9"/>
   <path d="m169+9 a6.5,6.5 0,0,1 -2.5+.5 2,2 0,0,1 -.9085683308339920508-3.7817136661667984101 L168.4085683308339920508+4.2817136661667984101 A2,2 0,0,0 167.5+.5 a5,5 0,0,0 -3+1"/>
   <path d="m172.5+9.5 v-9 h4"/>
   <path d="m1.5-2.5 h46 m10+0 h119"/>
   <use xlink:href="#l.0" transform="translate(0,  -26) skewX(15)"/>
   <use xlink:href="#l.1" transform="translate(0,  -45) skewX(15)"/>
   <use xlink:href="#l.2" transform="translate(0,  -64) skewX(15)"/>
   <use xlink:href="#l.3" transform="translate(0,  -83) skewX(15)"/>
   <use xlink:href="#l.4" transform="translate(0, -102) skewX(15)"/>
   <use xlink:href="#l.5" transform="translate(0, -121) skewX(15)"/>
  </g>
  <g transform="translate(0, -308)">
   <path d="m1.5+9.5 v-9 h4"/>
   <path d="m12.5+.5 h-2.5 a1.5,1.5 0,0,0 -1.5+1.5 v2.5 a2,2 0,0,0 4+0 v-1 h-4"/>
   <path d="m16.5+.5 v9 m-1-3 h3"/>
   <path d="m22.5+.5 v9 m-1-3 h3"/>
   <path d="m31.5+.5 h-2.5 a1.5,1.5 0,0,0 -1.5+1.5 v2.5 a2,2 0,0,0 4+0 v-1 h-4"/>
   <path d="m34.5+.5 v6 h3 v-1"/>
   <path d="m40.5+.5 v6 m0+2.5 v0.5"/>
   <path d="m43.5+.5 v6 h2.5 a1.5,1.5 0,0,0 1.5-1.5 v-4.5"/>
   <path d="m54.5+.5 h-2.5 a1.5,1.5 0,0,0 -1.5+1.5 v3 a1.5,1.5 0,0,0 1.5+1.5 h2.5 v-7.5 a1.5,1.5 0,0,0 -1.5-1.5 h-2"/>
   <path d="m63.5+.5 v9"/>
   <path d="m71+9 a6.5,6.5 0,0,1 -2.5+.5 2,2 0,0,1 -.9085683308339920508-3.7817136661667984101 L70.4085683308339920508+4.2817136661667984101 A2,2 0,0,0 69.5+.5 a5,5 0,0,0 -3+1"/>
   <path d="m74.5+7 a2.5,2.5 0,0,0 5+0 v-4 a2.5,2.5 0,0,0 -5+0 v4 z"/>
   <path d="m88.5+9.5 h2 a2,2 0,0,0 0-4 h-1 1 a2,2 0,0,0 2-2 v-1 a2,2 0,0,0 -2-2 h-2"/>
   <path d="m96.376404494382+1.20224719101124 a8.6666666666666666667,8.6666666666666666667 0,0,0 0+7.5955056179775280899 1.25,1.25 0,0,0 2.2471910112359550562+0 8.6666666666666666667,8.6666666666666666667 0,0,0 0-7.5955056179775280899 1.25,1.25 0,0,0 -2.2471910112359550562+0 z"/>
   <path d="m106.5+4.5 h-2 a2,2 0,0,0 -2+2 v1 a2,2 0,0,0 4+0 v-3 a4.1666666666666666667,4.1666666666666666667 0,0,0 -3-4"/>
   <path d="m109.5+3.5 a2,2 0,0,0 4+0 v-1 a2,2 0,0,0 -4+0 v1 z m2+2 a2,2 0,0,0 0+4 2,2 0,0,0 0-4 z"/>
   <path d="m122.5+3.5 h4"/>
   <path d="m135.5+.5 v9 h2.5 a2,2 0,0,0 0-4 2.5,2.5 0,0,0 0-5 h-2.5 z m0+5 h2.5"/>
   <path d="m143.5+9.5 l3-9 3+9"/>
   <path d="m156+5.5 h1.5 v-5 h-3 a2,2 0,0,0 -2+2 v5 a2,2 0,0,0 2+2 h3"/>
   <path d="m1.5-2.5 h46 m10+0 h100"/>
   <use xlink:href="#g.0" transform="translate(0, -26)"/>
  </g>
  <g transform="translate(0, -367)">
   <path d="m1.5+9.5 v-9 h4"/>
   <path d="m12.5+.5 h-2.5 a1.5,1.5 0,0,0 -1.5+1.5 v2.5 a2,2 0,0,0 4+0 v-1 h-4"/>
   <path d="m16.5+.5 v9 m-1-3 h3"/>
   <path d="m22.5+.5 v9 m-1-3 h3"/>
   <path d="m31.5+.5 h-2.5 a1.5,1.5 0,0,0 -1.5+1.5 v2.5 a2,2 0,0,0 4+0 v-1 h-4"/>
   <path d="m34.5+.5 v6 h3 v-1"/>
   <path d="m40.5+.5 v6 m0+2.5 v0.5"/>
   <path d="m43.5+.5 v6 h2.5 a1.5,1.5 0,0,0 1.5-1.5 v-4.5"/>
   <path d="m54.5+.5 h-2.5 a1.5,1.5 0,0,0 -1.5+1.5 v3 a1.5,1.5 0,0,0 1.5+1.5 h2.5 v-7.5 a1.5,1.5 0,0,0 -1.5-1.5 h-2"/>
   <path d="m63.5+.5 v9"/>
   <path d="m71+9 a6.5,6.5 0,0,1 -2.5+.5 2,2 0,0,1 -.9085683308339920508-3.7817136661667984101 L70.4085683308339920508+4.2817136661667984101 A2,2 0,0,0 69.5+.5 a5,5 0,0,0 -3+1"/>
   <path d="m74.5+7 a2.5,2.5 0,0,0 5+0 v-4 a2.5,2.5 0,0,0 -5+0 v4 z"/>
   <path d="m88.5+9.5 h2 a2,2 0,0,0 0-4 h-1 1 a2,2 0,0,0 2-2 v-1 a2,2 0,0,0 -2-2 h-2"/>
   <path d="m96.376404494382+1.20224719101124 a8.6666666666666666667,8.6666666666666666667 0,0,0 0+7.5955056179775280899 1.25,1.25 0,0,0 2.2471910112359550562+0 8.6666666666666666667,8.6666666666666666667 0,0,0 0-7.5955056179775280899 1.25,1.25 0,0,0 -2.2471910112359550562+0 z"/>
   <path d="m106.5+4.5 h-2 a2,2 0,0,0 -2+2 v1 a2,2 0,0,0 4+0 v-3 a4.1666666666666666667,4.1666666666666666667 0,0,0 -3-4"/>
   <path d="m109.5+3.5 a2,2 0,0,0 4+0 v-1 a2,2 0,0,0 -4+0 v1 z m2+2 a2,2 0,0,0 0+4 2,2 0,0,0 0-4 z"/>
   <path d="m122.5+3.5 h4"/>
   <path d="m135.5+.5 v9 h2.5 a2,2 0,0,0 0-4 2.5,2.5 0,0,0 0-5 h-2.5 z m0+5 h2.5"/>
   <path d="m148+9 a6.5,6.5 0,0,1 -2.5+.5 2,2 0,0,1 -.9085683308339920508-3.7817136661667984101 L147.4085683308339920508+4.2817136661667984101 A2,2 0,0,0 146.5+.5 a5,5 0,0,0 -3+1"/>
   <path d="m155+5.5 h1.5 v-5 h-3 a2,2 0,0,0 -2+2 v5 a2,2 0,0,0 2+2 h3"/>
   <path d="m1.5-2.5 h46 m10+0 h99"/>
   <use xlink:href="#g.0" transform="translate(0, -26) skewX(15)"/>
  </g>
 </g>
</svg>
